<svg width="172" height="172" viewBox="0 0 172 172" fill="none" xmlns="http://www.w3.org/2000/svg">
<path d="M118.719 0L0 120.26V128.288L131.074 0H118.719Z" fill="#18BB75"/>
<path d="M45.4144 0L0 45.0833V115.637L45.4144 71.188V0Z" fill="#18BB75"/>
<path d="M146.4 0L0 148.299V155.471L158.853 0H146.4Z" fill="#18BB75"/>
<path d="M132.512 0L0 134.231V141.879L144.965 0H132.512Z" fill="#18BB75"/>
<path d="M0 162.368V171.152L172 0H160.288L0 162.368Z" fill="#18BB75"/>
<path d="M124.485 136.423L131.169 171.999L137.85 136.423L172 148.422L144.534 124.849L172 101.275L137.85 113.275L131.169 77.6992L124.485 113.275L90.335 101.275L117.803 124.849L90.335 148.422L124.485 136.423Z" fill="#18BB75"/>
</svg>