<svg width="48" height="48" viewBox="0 0 48 48" fill="none" xmlns="http://www.w3.org/2000/svg">
<path d="M33.129 0.234375L0 33.7969V36.0369L36.5778 0.234375H33.129Z" fill="#004F36"/>
<path d="M12.6725 0L0 12.5808V32.2731L12.6725 19.8674V0Z" fill="#004F36"/>
<path d="M40.8548 0.234375L0 41.6227V43.6237L44.3314 0.234375H40.8548Z" fill="#004F36"/>
<path d="M36.9808 0.234375L0 37.696V39.8303L40.4546 0.234375H36.9808Z" fill="#004F36"/>
<path d="M0 45.5468V47.9979L47.9997 0.234375H44.7316L0 45.5468Z" fill="#004F36"/>
<path d="M34.7383 38.0756L36.6059 48.0023L38.4706 38.0756L48 41.4243L40.3353 34.8463L48 28.2655L38.4706 31.6143L36.6059 21.6875L34.7383 31.6143L25.209 28.2655L32.8736 34.8463L25.209 41.4243L34.7383 38.0756Z" fill="#D4B686"/>
</svg>
