<svg width="70" height="49" viewBox="0 0 70 49" fill="none" xmlns="http://www.w3.org/2000/svg">
<path d="M15.9811 7.51288C12.3278 6.85527 8.63468 9.30727 7.73708 12.9952L0.781479 40.8065C-0.119437 44.4944 2.11298 48.0171 5.76633 48.678C6.1671 48.7507 6.56788 48.7837 6.96534 48.7837C10.1947 48.7837 13.2121 46.4771 14.0137 43.1924L20.9693 15.3811C21.8669 11.6965 19.6345 8.1738 15.9811 7.51288Z" fill="white"/>
<path d="M31.4525 18.9777C27.7992 18.3201 24.1061 20.7721 23.2085 24.46L19.1643 40.8078C18.2634 44.4957 20.4958 48.0183 24.1491 48.6793C24.5499 48.752 24.9507 48.785 25.3482 48.785C28.5775 48.785 31.5949 46.4784 32.3965 43.1937L36.4407 26.8459C37.3383 23.1613 35.1059 19.6386 31.4525 18.9777Z" fill="white"/>
<path d="M54.3164 0.60663C50.663 -0.0509802 46.9699 2.40102 46.0723 6.08892L37.5434 40.8068C36.6425 44.4947 38.8749 48.0174 42.5283 48.6783C42.9291 48.751 43.3298 48.784 43.7273 48.784C46.9567 48.784 49.9741 46.4775 50.7756 43.1927L59.3045 8.47483C60.2021 4.79022 57.9697 1.26755 54.3164 0.60663Z" fill="white"/>
<path d="M62.6698 35.2148C58.8873 35.2148 55.8235 38.2716 55.8235 42.0454C55.8235 45.8192 58.8873 48.876 62.6698 48.876C66.4523 48.876 69.5161 45.8192 69.5161 42.0454C69.5161 38.2716 66.449 35.2148 62.6698 35.2148Z" fill="white"/>
</svg>
