<svg width="288" height="289" viewBox="0 0 288 289" fill="none" xmlns="http://www.w3.org/2000/svg">
<path d="M198.476 1.42578L-1 203.491V216.979L219.235 1.42578H198.476Z" fill="#096D4D"/>
<path d="M75.3067 0L-1 75.7505V194.297L75.3067 119.612V0Z" fill="#096D4D"/>
<path d="M244.986 1.42578L-1 250.603V262.654L265.909 1.42578H244.986Z" fill="#096D4D"/>
<path d="M221.651 1.42578L-1 226.965V239.816L242.575 1.42578H221.651Z" fill="#096D4D"/>
<path d="M-1 274.241V289.002L288 1.42578H268.321L-1 274.241Z" fill="#096D4D"/>
<path d="M208.163 229.225L219.394 288.999L230.62 229.225L287.999 249.386L241.851 209.777L287.999 170.168L230.62 190.33L219.394 130.555L208.163 190.33L150.783 170.168L196.937 209.777L150.783 249.386L208.163 229.225Z" fill="#096D4D"/>
</svg>
